<?xml version="1.0" encoding="utf-8"?>
<!-- Generator: Adobe Illustrator 16.0.0, SVG Export Plug-In . SVG Version: 6.00 Build 0)  -->
<!DOCTYPE svg PUBLIC "-//W3C//DTD SVG 1.1//EN" "http://www.w3.org/Graphics/SVG/1.1/DTD/svg11.dtd">
<svg version="1.1" id="Contours" xmlns="http://www.w3.org/2000/svg" xmlns:xlink="http://www.w3.org/1999/xlink" x="0px" y="0px"
	 width="1341.002px" height="1341.002px" viewBox="0 0 1341.002 1341.002" enable-background="new 0 0 1341.002 1341.002"
	 xml:space="preserve">
<path fill="#FF7E30" d="M761.94,648.004c-2.157,3.332-4.402,7.343-2.984,11.05c2.39,6.248,11.557,4.922,17.72,2.319
	c24.07-10.166,47.325-22.265,69.465-36.142c-71.562,95.159-166.963,172.245-275.027,222.228
	c-69.319,32.062-143.22,52.96-214.114,81.367c-70.895,28.407-140.444,65.657-190.448,123.387
	c-8.392,9.688-20.785,21.004-32.088,14.96c-3.568-1.908-6.087-5.273-8.456-8.554C26.033,920.166-17.129,741.924,8.433,573.073
	c43.398,52.282,94.673,98.627,153.917,131.898s126.73,53.117,194.667,51.881c46.711-0.85,92.719-11.507,137.48-24.887
	c108.796-32.521,212.643-81.542,306.895-144.871C788.24,607.397,775.091,627.701,761.94,648.004z"/>
<path fill="#FF7E30" d="M1094.34,603.895c34.239-76.608,68.206-155.378,74.649-239.042c1.198-15.565-1.216-35.274-16.007-40.27
	c-11.139-3.762-22.725,3.45-32.272,10.31c-77.951,56.002-155.902,112.004-233.854,168.007
	c34.223-66.112,50.435-141.437,46.441-215.773c-5.449,95.29-62.442,182.59-137.994,240.913
	c-75.552,58.324-168.129,90.643-261.375,111.015c-50.229,10.974-111.812,14.98-143.788-25.279
	c-41.518-52.271-99.287-91.443-163.211-110.67c35.902,26.771,66.981,59.988,91.307,97.59c6.296,9.731,12.26,22.144,6.782,32.358
	c-3.672,6.848-11.408,10.32-18.709,12.978c-86.642,31.539-189.932,11.554-258.557-50.028c-12.92-11.594-25.093-25.297-29.151-42.175
	c-3.583-14.902-0.431-30.526,3.233-45.408C80.128,271.62,277.885,74.79,514.956,17.61c237.07-57.181,502.812,27.855,662.646,212.042
	c159.834,184.188,206.586,459.259,116.578,685.909c-90.007,226.651-312.732,394.708-555.383,419.062
	c13.361-65.628,26.723-131.256,40.085-196.884c-74.216,36.039-122.447,119.664-116.478,201.95
	c225.967,0.418,451.934,0.835,677.899,1.252c-446.535,0.021-893.07,0.041-1339.605,0.061c215.595-0.324,431.189-0.649,646.784-0.975
	c-46.313-7.093-92.627-14.186-138.941-21.278c105.211-71.547,211.322-143.853,298.82-236.223
	C935.933,946.797,1018.053,774.58,1094.34,603.895z"/>
<path fill="#FF7E30" d="M937.663,535.018c-4.806,1.981-9.571-3.837-9.646-9.034c-0.087-6.133,3.48-11.858,8.152-15.832
	s10.384-6.48,16.006-8.933c0.996-0.435,2.018-0.876,3.103-0.946c2.914-0.188,5.422,2.48,5.964,5.351
	c0.541,2.87-0.43,5.809-1.665,8.455C955.205,523.447,947.222,531.076,937.663,535.018z"/>
</svg>
