<?xml version="1.0" encoding="utf-8"?>
<!-- Generator: Adobe Illustrator 16.0.0, SVG Export Plug-In . SVG Version: 6.00 Build 0)  -->
<!DOCTYPE svg PUBLIC "-//W3C//DTD SVG 1.1//EN" "http://www.w3.org/Graphics/SVG/1.1/DTD/svg11.dtd">
<svg version="1.1" id="Calque_1" xmlns="http://www.w3.org/2000/svg" xmlns:xlink="http://www.w3.org/1999/xlink" x="0px" y="0px"
	 width="1280px" height="800px" viewBox="0 0 1280 800" enable-background="new 0 0 1280 800" xml:space="preserve">
<g>
	<g>
		<polygon fill="#FFA644" points="-0.402,533.084 639.799,533.084 1280,533.084 1280,48.359 		"/>
		<rect x="-0.201" y="533.084" fill="#FFA644" width="1280.402" height="266.916"/>
		<polygon fill="#23A377" points="0.235,0 0.235,598.938 1276.703,0 		"/>
	</g>
</g>
<g>
	<path fill="#FFA644" d="M647.732,140.849c-0.183,0.285-0.373,0.627-0.252,0.943c0.201,0.533,0.977,0.42,1.497,0.197
		c2.036-0.868,4.002-1.9,5.875-3.085c-6.052,8.123-14.118,14.703-23.257,18.969c-5.862,2.737-12.111,4.521-18.106,6.946
		s-11.876,5.604-16.104,10.532c-0.709,0.827-1.758,1.793-2.714,1.278c-0.301-0.164-0.514-0.451-0.714-0.73
		c-8.454-11.819-12.104-27.033-9.943-41.446c3.671,4.462,8.006,8.418,13.017,11.258c5.009,2.84,10.716,4.535,16.461,4.429
		c3.95-0.072,7.84-0.982,11.625-2.124c9.2-2.776,17.981-6.961,25.951-12.366C649.957,137.383,648.845,139.116,647.732,140.849z"/>
	<path fill="#FFA644" d="M675.841,137.084c2.895-6.54,5.768-13.263,6.312-20.405c0.102-1.329-0.103-3.011-1.354-3.438
		c-0.943-0.32-1.922,0.294-2.729,0.88c-6.592,4.781-13.183,9.561-19.774,14.342c2.894-5.643,4.265-12.073,3.927-18.418
		c-0.461,8.134-5.279,15.586-11.668,20.564c-6.39,4.979-14.218,7.737-22.103,9.476c-4.248,0.938-9.454,1.279-12.159-2.157
		c-3.511-4.462-8.396-7.806-13.801-9.447c3.036,2.285,5.664,5.121,7.722,8.33c0.532,0.831,1.036,1.89,0.573,2.762
		c-0.311,0.585-0.965,0.881-1.582,1.108c-7.326,2.692-16.061,0.985-21.864-4.271c-1.093-0.989-2.122-2.16-2.465-3.6
		c-0.304-1.272-0.037-2.605,0.273-3.876c4.929-20.213,21.651-37.014,41.698-41.895s42.518,2.377,56.034,18.1
		c13.515,15.722,17.469,39.202,9.857,58.549c-7.611,19.347-26.445,33.692-46.964,35.77c1.13-5.601,2.26-11.203,3.39-16.805
		c-6.276,3.076-10.354,10.214-9.85,17.238c19.108,0.035,38.216,0.071,57.324,0.107c-37.76,0.001-75.519,0.003-113.278,0.005
		c18.23-0.028,36.462-0.055,54.692-0.083c-3.916-0.605-7.832-1.211-11.748-1.816c8.896-6.107,17.869-12.279,25.268-20.164
		C662.445,166.354,669.39,151.653,675.841,137.084z"/>
	<path fill="#FFA644" d="M662.592,131.204c-0.406,0.169-0.81-0.328-0.815-0.771c-0.007-0.523,0.294-1.012,0.689-1.352
		c0.396-0.34,0.878-0.553,1.354-0.763c0.084-0.036,0.171-0.075,0.263-0.081c0.245-0.015,0.458,0.212,0.504,0.457
		s-0.036,0.496-0.141,0.722C664.075,130.217,663.4,130.868,662.592,131.204z"/>
</g>
</svg>
