<?xml version="1.0" encoding="iso-8859-1"?>
<!-- Generator: Adobe Illustrator 16.0.0, SVG Export Plug-In . SVG Version: 6.00 Build 0)  -->
<!DOCTYPE svg PUBLIC "-//W3C//DTD SVG 1.1//EN" "http://www.w3.org/Graphics/SVG/1.1/DTD/svg11.dtd">
<svg version="1.1" id="Arrow_1_" xmlns="http://www.w3.org/2000/svg" xmlns:xlink="http://www.w3.org/1999/xlink" x="0px" y="0px"
	 width="500px" height="500px" viewBox="0 0 500 500" style="enable-background:new 0 0 500 500;" xml:space="preserve">
<g>
	<g>
		<path style="fill:#FFFFFF;" d="M250,0C112.1,0,0,112.1,0,250c0,137.9,112.1,250,250,250c49.7,0,97.7-14.5,138.8-42.1
			c6-4,7.7-12.2,3.601-18.302c-4-6.1-12.199-7.698-18.199-3.6c-36.801,24.6-79.7,37.6-124.2,37.6C126.7,473.7,26.3,373.3,26.3,250
			S126.7,26.3,250,26.3S473.7,126.7,473.7,250c0,41.1-11.2,81.4-32.602,116.3c-3.898,6.4-9.898,8.7-14.198,9.5
			c-7.301,1.4-15.301-0.5-21.4-5.1c-0.7-0.5-1.5-0.7-2.2-1.102c10.5-18.398,3-43.398-17.3-57.198c-11.5-7.802-23-16-34.1-24.602
			c-19.9-15.199-44.2-16.5-56.102-2.5l-6.898,8.2c-2.7,3.3-8.9,3.601-12.9,0.2c-11.2-9.4-22.3-19.602-33-30.2
			c-10.6-10.601-20.7-21.7-30.2-33c-1.8-2.1-2.7-4.9-2.4-7.5c0.2-2.2,1.1-4.1,2.7-5.4l7.1-5.9c14.6-12.4,14-36.9-1.4-57
			c-8.4-11-16.7-22.5-24.6-34.2c-13.4-19.9-39.7-28-58.1-16.9L118,114.7c-8.8,5.2-15,14.3-17.9,26.4c-5.2,21.8,1.2,50.4,16.7,74.5
			c22.2,34.7,48.4,67.2,77.7,96.5c29.4,29.302,61.8,55.5,96.4,77.602c18.5,11.898,39.3,18.5,58.5,18.5l0,0
			c18,0,32.5-6.102,40.398-16.7l0,0c12.102,9.1,27.5,12.8,42.2,9.9c13.5-2.602,24.8-10.302,31.7-21.7
			c23.8-39.102,36.398-84,36.398-130C500,112.1,387.9,0,250,0z M380.4,356.8L369,375.4c-2.4,4.1-10.2,6.698-19.8,6.698l0,0
			c-14,0-30.101-5.198-44.2-14.398C271.9,346.6,241,321.6,212.9,293.6c-28-27.898-52.9-58.898-74.1-92.1
			c-14.1-21.9-15.9-42.9-13.2-54.2c1.1-4.8,3.2-8.4,5.9-9.9l18.2-11.2c1.5-0.9,3.3-1.4,5.3-1.4c6.1,0,12.9,4.1,17.3,10.6
			c8.2,12.1,16.7,24,25.5,35.4c7.6,10,7.1,19.4,5.4,20.9l-7,5.8c-6.9,5.8-11.2,14-12.1,23.2c-0.9,9.6,2.2,19.4,8.5,26.8
			c10,11.9,20.7,23.6,31.8,34.7c11.2,11.2,22.8,21.898,34.6,31.7c14.6,12.3,38.4,10.6,50.1-3.5l6.7-8c0.601-0.7,2.5-0.802,3-0.802
			c3.7,0,10.101,1.9,17,7.2c11.601,8.8,23.4,17.4,35.4,25.5C380,340.2,384.2,350.5,380.4,356.8z"/>
	</g>
</g>
</svg>
